<svg xmlns="http://www.w3.org/2000/svg" id="svg2" width="479" height="693" contentScriptType="application/ecmascript" contentStyleType="text/css" preserveAspectRatio="none" version="1.1" viewBox="0 0 479 693" zoomAndPan="magnify" style="width:479px;height:693px"><metadata id="metadata167"/><defs id="defs4"><filter id="f1udffb30yptz0" width="300%" height="300%" x="-1" y="-1"><feGaussianBlur id="feGaussianBlur7" result="blurOut" stdDeviation="2"/><feColorMatrix id="feColorMatrix9" in="blurOut" result="blurOut2" type="matrix" values="0 0 0 0 0 0 0 0 0 0 0 0 0 0 0 0 0 0 .4 0"/><feOffset id="feOffset11" dx="4" dy="4" in="blurOut2" result="blurOut3"/><feBlend id="feBlend13" in="SourceGraphic" in2="blurOut3" mode="normal"/></filter></defs><g id="g15"><text id="text17" x="12" y="22.995" fill="#000" font-family="sans-serif" font-size="14" font-weight="bold" lengthAdjust="spacingAndGlyphs" textLength="466">Can Read committed Testdata using Service RequiresNew?</text><line style="stroke:#a80036;stroke-width:1;stroke-dasharray:5,5" id="line19" x1="39.5" x2="39.5" y1="116.594" y2="608.852"/><line style="stroke:#a80036;stroke-width:1;stroke-dasharray:5,5" id="line21" x1="148.5" x2="148.5" y1="116.594" y2="608.852"/><line style="stroke:#a80036;stroke-width:1;stroke-dasharray:5,5" id="line23" x1="269.5" x2="269.5" y1="116.594" y2="608.852"/><line style="stroke:#a80036;stroke-width:1;stroke-dasharray:5,5" id="line25" x1="345.5" x2="345.5" y1="116.594" y2="608.852"/><text id="text27" x="21.5" y="113.292" fill="#000" font-family="sans-serif" font-size="14" lengthAdjust="spacingAndGlyphs" textLength="31">Test</text><ellipse style="stroke:#a80036;stroke-width:2" id="ellipse29" cx="40" cy="43.297" fill="#FEFECE" filter="url(#f1udffb30yptz0)" rx="8" ry="8"/><path style="stroke:#a80036;stroke-width:2" id="path31" fill="#FEFECE" d="M40,51.2969 L40,78.2969 M27,59.2969 L53,59.2969 M40,78.2969 L27,93.2969 M40,78.2969 L53,93.2969" filter="url(#f1udffb30yptz0)"/><text id="text33" x="21.5" y="620.847" fill="#000" font-family="sans-serif" font-size="14" lengthAdjust="spacingAndGlyphs" textLength="31">Test</text><ellipse style="stroke:#a80036;stroke-width:2" id="ellipse35" cx="40" cy="634.148" fill="#FEFECE" filter="url(#f1udffb30yptz0)" rx="8" ry="8"/><path style="stroke:#a80036;stroke-width:2" id="path37" fill="#FEFECE" d="M40,642.1484 L40,669.1484 M27,650.1484 L53,650.1484 M40,669.1484 L27,684.1484 M40,669.1484 L53,684.1484" filter="url(#f1udffb30yptz0)"/><rect style="stroke:#a80036;stroke-width:1.5" id="rect39" width="63" height="30.297" x="115.5" y="81.297" fill="#FEFECE" filter="url(#f1udffb30yptz0)"/><text id="text41" x="122.5" y="101.292" fill="#000" font-family="sans-serif" font-size="14" lengthAdjust="spacingAndGlyphs" textLength="49">service</text><rect style="stroke:#a80036;stroke-width:1.5" id="rect43" width="63" height="30.297" x="115.5" y="607.852" fill="#FEFECE" filter="url(#f1udffb30yptz0)"/><text id="text45" x="122.5" y="627.847" fill="#000" font-family="sans-serif" font-size="14" lengthAdjust="spacingAndGlyphs" textLength="49">service</text><rect style="stroke:#a80036;stroke-width:1.5" id="rect47" width="91" height="46.594" x="222.5" y="65" fill="#FEFECE" filter="url(#f1udffb30yptz0)"/><text id="text49" x="229.5" y="84.995" fill="#000" font-family="sans-serif" font-size="14" lengthAdjust="spacingAndGlyphs" textLength="77">transaction</text><text id="text51" x="237.5" y="101.292" fill="#000" font-family="sans-serif" font-size="14" lengthAdjust="spacingAndGlyphs" textLength="61">manager</text><rect style="stroke:#a80036;stroke-width:1.5" id="rect53" width="91" height="46.594" x="222.5" y="607.852" fill="#FEFECE" filter="url(#f1udffb30yptz0)"/><text id="text55" x="229.5" y="627.847" fill="#000" font-family="sans-serif" font-size="14" lengthAdjust="spacingAndGlyphs" textLength="77">transaction</text><text id="text57" x="237.5" y="644.144" fill="#000" font-family="sans-serif" font-size="14" lengthAdjust="spacingAndGlyphs" textLength="61">manager</text><text id="text59" x="333.5" y="113.292" fill="#000" font-family="sans-serif" font-size="14" lengthAdjust="spacingAndGlyphs" textLength="18">db</text><path style="stroke:#000;stroke-width:1.5" id="path61" fill="#FEFECE" d="M327.5,64.2969 C327.5,54.2969 345.5,54.2969 345.5,54.2969 C345.5,54.2969 363.5,54.2969 363.5,64.2969 L363.5,90.2969 C363.5,100.2969 345.5,100.2969 345.5,100.2969 C345.5,100.2969 327.5,100.2969 327.5,90.2969 L327.5,64.2969" filter="url(#f1udffb30yptz0)"/><path style="stroke:#000;stroke-width:1.5" id="path63" fill="none" d="M327.5,64.2969 C327.5,74.2969 345.5,74.2969 345.5,74.2969 C345.5,74.2969 363.5,74.2969 363.5,64.2969"/><text id="text65" x="333.5" y="620.847" fill="#000" font-family="sans-serif" font-size="14" lengthAdjust="spacingAndGlyphs" textLength="18">db</text><path style="stroke:#000;stroke-width:1.5" id="path67" fill="#FEFECE" d="M327.5,634.1484 C327.5,624.1484 345.5,624.1484 345.5,624.1484 C345.5,624.1484 363.5,624.1484 363.5,634.1484 L363.5,660.1484 C363.5,670.1484 345.5,670.1484 345.5,670.1484 C345.5,670.1484 327.5,670.1484 327.5,660.1484 L327.5,634.1484" filter="url(#f1udffb30yptz0)"/><path style="stroke:#000;stroke-width:1.5" id="path69" fill="none" d="M327.5,634.1484 C327.5,644.1484 345.5,644.1484 345.5,644.1484 C345.5,644.1484 363.5,644.1484 363.5,634.1484"/><polygon style="stroke:#a80036;stroke-width:1" id="polygon71" fill="#A80036" points="258 143.594 268 147.594 258 151.594 262 147.594"/><line style="stroke:#a80036;stroke-width:1" id="line73" x1="40" x2="264" y1="147.594" y2="147.594"/><text id="text75" x="47" y="142.661" fill="#000" font-family="sans-serif" font-size="13" lengthAdjust="spacingAndGlyphs" textLength="125">begin Transaction 1</text><polygon style="stroke:#a80036;stroke-width:1" id="polygon77" fill="#A80036" points="333.5 172.727 343.5 176.727 333.5 180.727 337.5 176.727"/><line style="stroke:#a80036;stroke-width:1" id="line79" x1="40" x2="339.5" y1="176.727" y2="176.727"/><text id="text81" x="47" y="171.793" fill="#000" font-family="sans-serif" font-size="13" lengthAdjust="spacingAndGlyphs" textLength="94">insert testdata</text><polygon style="stroke:#a80036;stroke-width:1" id="polygon83" fill="#A80036" points="51 201.859 41 205.859 51 209.859 47 205.859"/><line style="stroke:#a80036;stroke-width:1" id="line85" x1="45" x2="344.5" y1="205.859" y2="205.859"/><text id="text87" x="57" y="200.926" fill="#000" font-family="sans-serif" font-size="13" lengthAdjust="spacingAndGlyphs" textLength="131">return generated ids</text><polygon style="stroke:#a80036;stroke-width:1" id="polygon89" fill="#A80036" points="258 230.992 268 234.992 258 238.992 262 234.992"/><line style="stroke:#a80036;stroke-width:1" id="line91" x1="40" x2="264" y1="234.992" y2="234.992"/><text id="text93" x="47" y="230.059" fill="#000" font-family="sans-serif" font-size="13" lengthAdjust="spacingAndGlyphs" textLength="139">commit Transaction 1</text><polygon style="stroke:#a80036;stroke-width:1" id="polygon95" fill="#A80036" points="258 260.125 268 264.125 258 268.125 262 264.125"/><line style="stroke:#a80036;stroke-width:1" id="line97" x1="40" x2="264" y1="264.125" y2="264.125"/><text id="text99" x="47" y="259.192" fill="#000" font-family="sans-serif" font-size="13" lengthAdjust="spacingAndGlyphs" textLength="206">start RequiresNew Transaction 2</text><polygon style="stroke:#a80036;stroke-width:1" id="polygon101" fill="#A80036" points="137 289.258 147 293.258 137 297.258 141 293.258"/><line style="stroke:#a80036;stroke-width:1" id="line103" x1="40" x2="143" y1="293.258" y2="293.258"/><text id="text105" x="47" y="288.325" fill="#000" font-family="sans-serif" font-size="13" lengthAdjust="spacingAndGlyphs" textLength="85">read Data(id)</text><polygon style="stroke:#a80036;stroke-width:1" id="polygon107" fill="#FBFB77" points="153.5 306.391 153.5 361.391 255.5 361.391 255.5 316.391 245.5 306.391 153.5 306.391" filter="url(#f1udffb30yptz0)"/><line style="stroke:#a80036;stroke-width:1" id="line109" x1="245.5" x2="245.5" y1="306.391" y2="316.391"/><line style="stroke:#a80036;stroke-width:1" id="line111" x1="255.5" x2="245.5" y1="316.391" y2="316.391"/><text id="text113" x="159.5" y="323.457" fill="#000" font-family="sans-serif" font-size="13" lengthAdjust="spacingAndGlyphs" textLength="81">s will use the</text><text id="text115" x="159.5" y="338.59" fill="#000" font-family="sans-serif" font-size="13" lengthAdjust="spacingAndGlyphs" textLength="48">running</text><text id="text117" x="159.5" y="353.723" fill="#000" font-family="sans-serif" font-size="13" lengthAdjust="spacingAndGlyphs" textLength="72">transaction</text><polygon style="stroke:#a80036;stroke-width:1" id="polygon119" fill="#A80036" points="333.5 387.789 343.5 391.789 333.5 395.789 337.5 391.789"/><line style="stroke:#a80036;stroke-width:1" id="line121" x1="149" x2="339.5" y1="391.789" y2="391.789"/><text id="text123" x="156" y="386.856" fill="#000" font-family="sans-serif" font-size="13" lengthAdjust="spacingAndGlyphs" textLength="63">read by id</text><polygon style="stroke:#a80036;stroke-width:1" id="polygon125" fill="#FBFB77" points="350.5 404.922 350.5 459.922 464.5 459.922 464.5 414.922 454.5 404.922 350.5 404.922" filter="url(#f1udffb30yptz0)"/><line style="stroke:#a80036;stroke-width:1" id="line127" x1="454.5" x2="454.5" y1="404.922" y2="414.922"/><line style="stroke:#a80036;stroke-width:1" id="line129" x1="464.5" x2="454.5" y1="414.922" y2="414.922"/><text id="text131" x="356.5" y="421.989" fill="#000" font-family="sans-serif" font-size="13" lengthAdjust="spacingAndGlyphs" textLength="93">can read since</text><text id="text133" x="356.5" y="437.122" fill="#000" font-family="sans-serif" font-size="13" lengthAdjust="spacingAndGlyphs" textLength="84">transaction 1</text><text id="text135" x="356.5" y="452.254" fill="#000" font-family="sans-serif" font-size="13" lengthAdjust="spacingAndGlyphs" textLength="84">is committed</text><polygon style="stroke:#a80036;stroke-width:1" id="polygon137" fill="#A80036" points="160 486.32 150 490.32 160 494.32 156 490.32"/><line style="stroke:#a80036;stroke-width:1" id="line139" x1="154" x2="344.5" y1="490.32" y2="490.32"/><text id="text141" x="166" y="485.387" fill="#000" font-family="sans-serif" font-size="13" lengthAdjust="spacingAndGlyphs" textLength="29">data</text><polygon style="stroke:#a80036;stroke-width:1" id="polygon143" fill="#A80036" points="51 515.453 41 519.453 51 523.453 47 519.453"/><line style="stroke:#a80036;stroke-width:1" id="line145" x1="45" x2="148" y1="519.453" y2="519.453"/><text id="text147" x="57" y="514.52" fill="#000" font-family="sans-serif" font-size="13" lengthAdjust="spacingAndGlyphs" textLength="72">return data</text><polygon style="stroke:#a80036;stroke-width:1" id="polygon149" fill="#A80036" points="258 544.586 268 548.586 258 552.586 262 548.586"/><line style="stroke:#a80036;stroke-width:1" id="line151" x1="40" x2="264" y1="548.586" y2="548.586"/><text id="text153" x="47" y="543.653" fill="#000" font-family="sans-serif" font-size="13" lengthAdjust="spacingAndGlyphs" textLength="137">commit transaction 2</text><line style="stroke:#a80036;stroke-width:1" id="line155" x1="40" x2="82" y1="577.852" y2="577.852"/><line style="stroke:#a80036;stroke-width:1" id="line157" x1="82" x2="82" y1="577.852" y2="590.852"/><line style="stroke:#a80036;stroke-width:1" id="line159" x1="41" x2="82" y1="590.852" y2="590.852"/><polygon style="stroke:#a80036;stroke-width:1" id="polygon161" fill="#A80036" points="51 586.852 41 590.852 51 594.852 47 590.852"/><text id="text163" x="47" y="572.786" fill="#000" font-family="sans-serif" font-size="13" lengthAdjust="spacingAndGlyphs" textLength="37">check</text></g></svg>