<svg xmlns="http://www.w3.org/2000/svg" id="svg2" width="420" height="565" contentScriptType="application/ecmascript" contentStyleType="text/css" preserveAspectRatio="none" version="1.1" viewBox="0 0 420 565" zoomAndPan="magnify" style="width:420px;height:565px"><metadata id="metadata143"/><defs id="defs4"><filter id="fdibbqr5wvtm3" width="300%" height="300%" x="-1" y="-1"><feGaussianBlur id="feGaussianBlur7" result="blurOut" stdDeviation="2"/><feColorMatrix id="feColorMatrix9" in="blurOut" result="blurOut2" type="matrix" values="0 0 0 0 0 0 0 0 0 0 0 0 0 0 0 0 0 0 .4 0"/><feOffset id="feOffset11" dx="4" dy="4" in="blurOut2" result="blurOut3"/><feBlend id="feBlend13" in="SourceGraphic" in2="blurOut3" mode="normal"/></filter></defs><g id="g15"><text id="text17" x="109.5" y="22.995" fill="#000" font-family="sans-serif" font-size="14" font-weight="bold" lengthAdjust="spacingAndGlyphs" textLength="202">Can Service insert Entity?</text><line style="stroke:#a80036;stroke-width:1;stroke-dasharray:5,5" id="line19" x1="26" x2="26" y1="116.594" y2="481.188"/><line style="stroke:#a80036;stroke-width:1;stroke-dasharray:5,5" id="line21" x1="170" x2="170" y1="116.594" y2="481.188"/><line style="stroke:#a80036;stroke-width:1;stroke-dasharray:5,5" id="line23" x1="319" x2="319" y1="116.594" y2="481.188"/><line style="stroke:#a80036;stroke-width:1;stroke-dasharray:5,5" id="line25" x1="395" x2="395" y1="116.594" y2="481.188"/><text id="text27" x="8" y="113.292" fill="#000" font-family="sans-serif" font-size="14" lengthAdjust="spacingAndGlyphs" textLength="31">Test</text><ellipse style="stroke:#a80036;stroke-width:2" id="ellipse29" cx="26.5" cy="43.297" fill="#FEFECE" filter="url(#fdibbqr5wvtm3)" rx="8" ry="8"/><path style="stroke:#a80036;stroke-width:2" id="path31" fill="#FEFECE" d="M26.5,51.2969 L26.5,78.2969 M13.5,59.2969 L39.5,59.2969 M26.5,78.2969 L13.5,93.2969 M26.5,78.2969 L39.5,93.2969" filter="url(#fdibbqr5wvtm3)"/><text id="text33" x="8" y="493.183" fill="#000" font-family="sans-serif" font-size="14" lengthAdjust="spacingAndGlyphs" textLength="31">Test</text><ellipse style="stroke:#a80036;stroke-width:2" id="ellipse35" cx="26.5" cy="506.484" fill="#FEFECE" filter="url(#fdibbqr5wvtm3)" rx="8" ry="8"/><path style="stroke:#a80036;stroke-width:2" id="path37" fill="#FEFECE" d="M26.5,514.4844 L26.5,541.4844 M13.5,522.4844 L39.5,522.4844 M26.5,541.4844 L13.5,556.4844 M26.5,541.4844 L39.5,556.4844" filter="url(#fdibbqr5wvtm3)"/><rect style="stroke:#a80036;stroke-width:1.5" id="rect39" width="63" height="30.297" x="137" y="81.297" fill="#FEFECE" filter="url(#fdibbqr5wvtm3)"/><text id="text41" x="144" y="101.292" fill="#000" font-family="sans-serif" font-size="14" lengthAdjust="spacingAndGlyphs" textLength="49">service</text><rect style="stroke:#a80036;stroke-width:1.5" id="rect43" width="63" height="30.297" x="137" y="480.188" fill="#FEFECE" filter="url(#fdibbqr5wvtm3)"/><text id="text45" x="144" y="500.183" fill="#000" font-family="sans-serif" font-size="14" lengthAdjust="spacingAndGlyphs" textLength="49">service</text><rect style="stroke:#a80036;stroke-width:1.5" id="rect47" width="91" height="46.594" x="272" y="65" fill="#FEFECE" filter="url(#fdibbqr5wvtm3)"/><text id="text49" x="279" y="84.995" fill="#000" font-family="sans-serif" font-size="14" lengthAdjust="spacingAndGlyphs" textLength="77">transaction</text><text id="text51" x="287" y="101.292" fill="#000" font-family="sans-serif" font-size="14" lengthAdjust="spacingAndGlyphs" textLength="61">manager</text><rect style="stroke:#a80036;stroke-width:1.5" id="rect53" width="91" height="46.594" x="272" y="480.188" fill="#FEFECE" filter="url(#fdibbqr5wvtm3)"/><text id="text55" x="279" y="500.183" fill="#000" font-family="sans-serif" font-size="14" lengthAdjust="spacingAndGlyphs" textLength="77">transaction</text><text id="text57" x="287" y="516.48" fill="#000" font-family="sans-serif" font-size="14" lengthAdjust="spacingAndGlyphs" textLength="61">manager</text><text id="text59" x="383" y="113.292" fill="#000" font-family="sans-serif" font-size="14" lengthAdjust="spacingAndGlyphs" textLength="18">db</text><path style="stroke:#000;stroke-width:1.5" id="path61" fill="#FEFECE" d="M377,64.2969 C377,54.2969 395,54.2969 395,54.2969 C395,54.2969 413,54.2969 413,64.2969 L413,90.2969 C413,100.2969 395,100.2969 395,100.2969 C395,100.2969 377,100.2969 377,90.2969 L377,64.2969" filter="url(#fdibbqr5wvtm3)"/><path style="stroke:#000;stroke-width:1.5" id="path63" fill="none" d="M377,64.2969 C377,74.2969 395,74.2969 395,74.2969 C395,74.2969 413,74.2969 413,64.2969"/><text id="text65" x="383" y="493.183" fill="#000" font-family="sans-serif" font-size="14" lengthAdjust="spacingAndGlyphs" textLength="18">db</text><path style="stroke:#000;stroke-width:1.5" id="path67" fill="#FEFECE" d="M377,506.4844 C377,496.4844 395,496.4844 395,496.4844 C395,496.4844 413,496.4844 413,506.4844 L413,532.4844 C413,542.4844 395,542.4844 395,542.4844 C395,542.4844 377,542.4844 377,532.4844 L377,506.4844" filter="url(#fdibbqr5wvtm3)"/><path style="stroke:#000;stroke-width:1.5" id="path69" fill="none" d="M377,506.4844 C377,516.4844 395,516.4844 395,516.4844 C395,516.4844 413,516.4844 413,506.4844"/><polygon style="stroke:#a80036;stroke-width:1" id="polygon71" fill="#A80036" points="158.5 143.594 168.5 147.594 158.5 151.594 162.5 147.594"/><line style="stroke:#a80036;stroke-width:1" id="line73" x1="26.5" x2="164.5" y1="147.594" y2="147.594"/><text id="text75" x="33.5" y="142.661" fill="#000" font-family="sans-serif" font-size="13" lengthAdjust="spacingAndGlyphs" textLength="120">newEntity(1, test1)</text><polygon style="stroke:#a80036;stroke-width:1" id="polygon77" fill="#FBFB77" points="175 160.727 175 215.727 309 215.727 309 170.727 299 160.727 175 160.727" filter="url(#fdibbqr5wvtm3)"/><line style="stroke:#a80036;stroke-width:1" id="line79" x1="299" x2="299" y1="160.727" y2="170.727"/><line style="stroke:#a80036;stroke-width:1" id="line81" x1="309" x2="299" y1="170.727" y2="170.727"/><text id="text83" x="181" y="177.793" fill="#000" font-family="sans-serif" font-size="13" lengthAdjust="spacingAndGlyphs" textLength="113">REQUIRED means</text><text id="text85" x="181" y="192.926" fill="#000" font-family="sans-serif" font-size="13" lengthAdjust="spacingAndGlyphs" textLength="86">transaction is</text><text id="text87" x="181" y="208.059" fill="#000" font-family="sans-serif" font-size="13" lengthAdjust="spacingAndGlyphs" textLength="65">necessary</text><polygon style="stroke:#a80036;stroke-width:1" id="polygon89" fill="#A80036" points="307.5 242.125 317.5 246.125 307.5 250.125 311.5 246.125"/><line style="stroke:#a80036;stroke-width:1" id="line91" x1="170.5" x2="313.5" y1="246.125" y2="246.125"/><text id="text93" x="177.5" y="241.192" fill="#000" font-family="sans-serif" font-size="13" lengthAdjust="spacingAndGlyphs" textLength="111">begin transaction</text><polygon style="stroke:#a80036;stroke-width:1" id="polygon95" fill="#A80036" points="383 271.258 393 275.258 383 279.258 387 275.258"/><line style="stroke:#a80036;stroke-width:1" id="line97" x1="170.5" x2="389" y1="275.258" y2="275.258"/><text id="text99" x="177.5" y="270.325" fill="#000" font-family="sans-serif" font-size="13" lengthAdjust="spacingAndGlyphs" textLength="76">insert entity</text><polygon style="stroke:#a80036;stroke-width:1" id="polygon101" fill="#A80036" points="181.5 300.391 171.5 304.391 181.5 308.391 177.5 304.391"/><line style="stroke:#a80036;stroke-width:1" id="line103" x1="175.5" x2="394" y1="304.391" y2="304.391"/><text id="text105" x="187.5" y="299.457" fill="#000" font-family="sans-serif" font-size="13" lengthAdjust="spacingAndGlyphs" textLength="73">generate id</text><polygon style="stroke:#a80036;stroke-width:1" id="polygon107" fill="#A80036" points="307.5 329.523 317.5 333.523 307.5 337.523 311.5 333.523"/><line style="stroke:#a80036;stroke-width:1" id="line109" x1="170.5" x2="313.5" y1="333.523" y2="333.523"/><text id="text111" x="177.5" y="328.59" fill="#000" font-family="sans-serif" font-size="13" lengthAdjust="spacingAndGlyphs" textLength="125">commit transaction</text><polygon style="stroke:#a80036;stroke-width:1" id="polygon113" fill="#A80036" points="37.5 358.656 27.5 362.656 37.5 366.656 33.5 362.656"/><line style="stroke:#a80036;stroke-width:1" id="line115" x1="31.5" x2="169.5" y1="362.656" y2="362.656"/><text id="text117" x="43.5" y="357.723" fill="#000" font-family="sans-serif" font-size="13" lengthAdjust="spacingAndGlyphs" textLength="11">id</text><polygon style="stroke:#a80036;stroke-width:1" id="polygon119" fill="#A80036" points="383 387.789 393 391.789 383 395.789 387 391.789"/><line style="stroke:#a80036;stroke-width:1" id="line121" x1="26.5" x2="389" y1="391.789" y2="391.789"/><text id="text123" x="33.5" y="386.856" fill="#000" font-family="sans-serif" font-size="13" lengthAdjust="spacingAndGlyphs" textLength="50">read(id)</text><polygon style="stroke:#a80036;stroke-width:1" id="polygon125" fill="#A80036" points="37.5 416.922 27.5 420.922 37.5 424.922 33.5 420.922"/><line style="stroke:#a80036;stroke-width:1" id="line127" x1="31.5" x2="394" y1="420.922" y2="420.922"/><text id="text129" x="43.5" y="415.989" fill="#000" font-family="sans-serif" font-size="13" lengthAdjust="spacingAndGlyphs" textLength="36">entity</text><line style="stroke:#a80036;stroke-width:1" id="line131" x1="26.5" x2="68.5" y1="450.188" y2="450.188"/><line style="stroke:#a80036;stroke-width:1" id="line133" x1="68.5" x2="68.5" y1="450.188" y2="463.188"/><line style="stroke:#a80036;stroke-width:1" id="line135" x1="27.5" x2="68.5" y1="463.188" y2="463.188"/><polygon style="stroke:#a80036;stroke-width:1" id="polygon137" fill="#A80036" points="37.5 459.188 27.5 463.188 37.5 467.188 33.5 463.188"/><text id="text139" x="33.5" y="445.122" fill="#000" font-family="sans-serif" font-size="13" lengthAdjust="spacingAndGlyphs" textLength="77">check entity</text></g></svg>