<svg xmlns="http://www.w3.org/2000/svg" id="svg2" width="458" height="678" contentScriptType="application/ecmascript" contentStyleType="text/css" preserveAspectRatio="none" version="1.1" viewBox="0 0 458 678" zoomAndPan="magnify" style="width:458px;height:678px"><metadata id="metadata165"/><defs id="defs4"><filter id="f1a4vjijloivho" width="300%" height="300%" x="-1" y="-1"><feGaussianBlur id="feGaussianBlur7" result="blurOut" stdDeviation="2"/><feColorMatrix id="feColorMatrix9" in="blurOut" result="blurOut2" type="matrix" values="0 0 0 0 0 0 0 0 0 0 0 0 0 0 0 0 0 0 .4 0"/><feOffset id="feOffset11" dx="4" dy="4" in="blurOut2" result="blurOut3"/><feBlend id="feBlend13" in="SourceGraphic" in2="blurOut3" mode="normal"/></filter></defs><g id="g15"><text id="text17" x="36.5" y="22.995" fill="#000" font-family="sans-serif" font-size="14" font-weight="bold" lengthAdjust="spacingAndGlyphs" textLength="388">Can&apos;t Read Testdata using Service RequiresNew?</text><line style="stroke:#a80036;stroke-width:1;stroke-dasharray:5,5" id="line19" x1="26" x2="26" y1="116.594" y2="593.719"/><line style="stroke:#a80036;stroke-width:1;stroke-dasharray:5,5" id="line21" x1="135" x2="135" y1="116.594" y2="593.719"/><line style="stroke:#a80036;stroke-width:1;stroke-dasharray:5,5" id="line23" x1="256" x2="256" y1="116.594" y2="593.719"/><line style="stroke:#a80036;stroke-width:1;stroke-dasharray:5,5" id="line25" x1="332" x2="332" y1="116.594" y2="593.719"/><text id="text27" x="8" y="113.292" fill="#000" font-family="sans-serif" font-size="14" lengthAdjust="spacingAndGlyphs" textLength="31">Test</text><ellipse style="stroke:#a80036;stroke-width:2" id="ellipse29" cx="26.5" cy="43.297" fill="#FEFECE" filter="url(#f1a4vjijloivho)" rx="8" ry="8"/><path style="stroke:#a80036;stroke-width:2" id="path31" fill="#FEFECE" d="M26.5,51.2969 L26.5,78.2969 M13.5,59.2969 L39.5,59.2969 M26.5,78.2969 L13.5,93.2969 M26.5,78.2969 L39.5,93.2969" filter="url(#f1a4vjijloivho)"/><text id="text33" x="8" y="605.714" fill="#000" font-family="sans-serif" font-size="14" lengthAdjust="spacingAndGlyphs" textLength="31">Test</text><ellipse style="stroke:#a80036;stroke-width:2" id="ellipse35" cx="26.5" cy="619.016" fill="#FEFECE" filter="url(#f1a4vjijloivho)" rx="8" ry="8"/><path style="stroke:#a80036;stroke-width:2" id="path37" fill="#FEFECE" d="M26.5,627.0156 L26.5,654.0156 M13.5,635.0156 L39.5,635.0156 M26.5,654.0156 L13.5,669.0156 M26.5,654.0156 L39.5,669.0156" filter="url(#f1a4vjijloivho)"/><rect style="stroke:#a80036;stroke-width:1.5" id="rect39" width="63" height="30.297" x="102" y="81.297" fill="#FEFECE" filter="url(#f1a4vjijloivho)"/><text id="text41" x="109" y="101.292" fill="#000" font-family="sans-serif" font-size="14" lengthAdjust="spacingAndGlyphs" textLength="49">service</text><rect style="stroke:#a80036;stroke-width:1.5" id="rect43" width="63" height="30.297" x="102" y="592.719" fill="#FEFECE" filter="url(#f1a4vjijloivho)"/><text id="text45" x="109" y="612.714" fill="#000" font-family="sans-serif" font-size="14" lengthAdjust="spacingAndGlyphs" textLength="49">service</text><rect style="stroke:#a80036;stroke-width:1.5" id="rect47" width="91" height="46.594" x="209" y="65" fill="#FEFECE" filter="url(#f1a4vjijloivho)"/><text id="text49" x="216" y="84.995" fill="#000" font-family="sans-serif" font-size="14" lengthAdjust="spacingAndGlyphs" textLength="77">transaction</text><text id="text51" x="224" y="101.292" fill="#000" font-family="sans-serif" font-size="14" lengthAdjust="spacingAndGlyphs" textLength="61">manager</text><rect style="stroke:#a80036;stroke-width:1.5" id="rect53" width="91" height="46.594" x="209" y="592.719" fill="#FEFECE" filter="url(#f1a4vjijloivho)"/><text id="text55" x="216" y="612.714" fill="#000" font-family="sans-serif" font-size="14" lengthAdjust="spacingAndGlyphs" textLength="77">transaction</text><text id="text57" x="224" y="629.011" fill="#000" font-family="sans-serif" font-size="14" lengthAdjust="spacingAndGlyphs" textLength="61">manager</text><text id="text59" x="320" y="113.292" fill="#000" font-family="sans-serif" font-size="14" lengthAdjust="spacingAndGlyphs" textLength="18">db</text><path style="stroke:#000;stroke-width:1.5" id="path61" fill="#FEFECE" d="M314,64.2969 C314,54.2969 332,54.2969 332,54.2969 C332,54.2969 350,54.2969 350,64.2969 L350,90.2969 C350,100.2969 332,100.2969 332,100.2969 C332,100.2969 314,100.2969 314,90.2969 L314,64.2969" filter="url(#f1a4vjijloivho)"/><path style="stroke:#000;stroke-width:1.5" id="path63" fill="none" d="M314,64.2969 C314,74.2969 332,74.2969 332,74.2969 C332,74.2969 350,74.2969 350,64.2969"/><text id="text65" x="320" y="605.714" fill="#000" font-family="sans-serif" font-size="14" lengthAdjust="spacingAndGlyphs" textLength="18">db</text><path style="stroke:#000;stroke-width:1.5" id="path67" fill="#FEFECE" d="M314,619.0156 C314,609.0156 332,609.0156 332,609.0156 C332,609.0156 350,609.0156 350,619.0156 L350,645.0156 C350,655.0156 332,655.0156 332,655.0156 C332,655.0156 314,655.0156 314,645.0156 L314,619.0156" filter="url(#f1a4vjijloivho)"/><path style="stroke:#000;stroke-width:1.5" id="path69" fill="none" d="M314,619.0156 C314,629.0156 332,629.0156 332,629.0156 C332,629.0156 350,629.0156 350,619.0156"/><polygon style="stroke:#a80036;stroke-width:1" id="polygon71" fill="#A80036" points="244.5 143.594 254.5 147.594 244.5 151.594 248.5 147.594"/><line style="stroke:#a80036;stroke-width:1" id="line73" x1="26.5" x2="250.5" y1="147.594" y2="147.594"/><text id="text75" x="33.5" y="142.661" fill="#000" font-family="sans-serif" font-size="13" lengthAdjust="spacingAndGlyphs" textLength="125">begin Transaction 1</text><polygon style="stroke:#a80036;stroke-width:1" id="polygon77" fill="#A80036" points="320 172.727 330 176.727 320 180.727 324 176.727"/><line style="stroke:#a80036;stroke-width:1" id="line79" x1="26.5" x2="326" y1="176.727" y2="176.727"/><text id="text81" x="33.5" y="171.793" fill="#000" font-family="sans-serif" font-size="13" lengthAdjust="spacingAndGlyphs" textLength="94">insert testdata</text><polygon style="stroke:#a80036;stroke-width:1" id="polygon83" fill="#A80036" points="37.5 201.859 27.5 205.859 37.5 209.859 33.5 205.859"/><line style="stroke:#a80036;stroke-width:1" id="line85" x1="31.5" x2="331" y1="205.859" y2="205.859"/><text id="text87" x="43.5" y="200.926" fill="#000" font-family="sans-serif" font-size="13" lengthAdjust="spacingAndGlyphs" textLength="131">return generated ids</text><polygon style="stroke:#a80036;stroke-width:1" id="polygon89" fill="#A80036" points="244.5 230.992 254.5 234.992 244.5 238.992 248.5 234.992"/><line style="stroke:#a80036;stroke-width:1" id="line91" x1="26.5" x2="250.5" y1="234.992" y2="234.992"/><text id="text93" x="33.5" y="230.059" fill="#000" font-family="sans-serif" font-size="13" lengthAdjust="spacingAndGlyphs" textLength="206">start RequiresNew Transaction 2</text><polygon style="stroke:#a80036;stroke-width:1" id="polygon95" fill="#A80036" points="123.5 260.125 133.5 264.125 123.5 268.125 127.5 264.125"/><line style="stroke:#a80036;stroke-width:1" id="line97" x1="26.5" x2="129.5" y1="264.125" y2="264.125"/><text id="text99" x="33.5" y="259.192" fill="#000" font-family="sans-serif" font-size="13" lengthAdjust="spacingAndGlyphs" textLength="85">read Data(id)</text><polygon style="stroke:#a80036;stroke-width:1" id="polygon101" fill="#FBFB77" points="140 277.258 140 332.258 242 332.258 242 287.258 232 277.258 140 277.258" filter="url(#f1a4vjijloivho)"/><line style="stroke:#a80036;stroke-width:1" id="line103" x1="232" x2="232" y1="277.258" y2="287.258"/><line style="stroke:#a80036;stroke-width:1" id="line105" x1="242" x2="232" y1="287.258" y2="287.258"/><text id="text107" x="146" y="294.325" fill="#000" font-family="sans-serif" font-size="13" lengthAdjust="spacingAndGlyphs" textLength="81">s will use the</text><text id="text109" x="146" y="309.457" fill="#000" font-family="sans-serif" font-size="13" lengthAdjust="spacingAndGlyphs" textLength="48">running</text><text id="text111" x="146" y="324.59" fill="#000" font-family="sans-serif" font-size="13" lengthAdjust="spacingAndGlyphs" textLength="72">transaction</text><polygon style="stroke:#a80036;stroke-width:1" id="polygon113" fill="#A80036" points="320 358.656 330 362.656 320 366.656 324 362.656"/><line style="stroke:#a80036;stroke-width:1" id="line115" x1="135.5" x2="326" y1="362.656" y2="362.656"/><text id="text117" x="142.5" y="357.723" fill="#000" font-family="sans-serif" font-size="13" lengthAdjust="spacingAndGlyphs" textLength="63">read by id</text><polygon style="stroke:#a80036;stroke-width:1" id="polygon119" fill="#FBFB77" points="337 375.789 337 415.789 449 415.789 449 385.789 439 375.789 337 375.789" filter="url(#f1a4vjijloivho)"/><line style="stroke:#a80036;stroke-width:1" id="line121" x1="439" x2="439" y1="375.789" y2="385.789"/><line style="stroke:#a80036;stroke-width:1" id="line123" x1="449" x2="439" y1="385.789" y2="385.789"/><text id="text125" x="343" y="392.856" fill="#000" font-family="sans-serif" font-size="13" lengthAdjust="spacingAndGlyphs" textLength="61">dirty read</text><text id="text127" x="343" y="407.989" fill="#000" font-family="sans-serif" font-size="13" lengthAdjust="spacingAndGlyphs" textLength="91">is not possible</text><polygon style="stroke:#a80036;stroke-width:1" id="polygon129" fill="#A80036" points="146.5 442.055 136.5 446.055 146.5 450.055 142.5 446.055"/><line style="stroke:#a80036;stroke-width:1" id="line131" x1="140.5" x2="331" y1="446.055" y2="446.055"/><text id="text133" x="152.5" y="441.122" fill="#000" font-family="sans-serif" font-size="13" lengthAdjust="spacingAndGlyphs" textLength="117">don&apos;t know id (yet)</text><polygon style="stroke:#a80036;stroke-width:1" id="polygon135" fill="#A80036" points="37.5 471.188 27.5 475.188 37.5 479.188 33.5 475.188"/><line style="stroke:#a80036;stroke-width:1" id="line137" x1="31.5" x2="134.5" y1="475.188" y2="475.188"/><text id="text139" x="43.5" y="470.254" fill="#000" font-family="sans-serif" font-size="13" lengthAdjust="spacingAndGlyphs" textLength="65">return null</text><polygon style="stroke:#a80036;stroke-width:1" id="polygon141" fill="#A80036" points="244.5 500.32 254.5 504.32 244.5 508.32 248.5 504.32"/><line style="stroke:#a80036;stroke-width:1" id="line143" x1="26.5" x2="250.5" y1="504.32" y2="504.32"/><text id="text145" x="33.5" y="499.387" fill="#000" font-family="sans-serif" font-size="13" lengthAdjust="spacingAndGlyphs" textLength="137">commit transaction 2</text><line style="stroke:#a80036;stroke-width:1" id="line147" x1="26.5" x2="68.5" y1="533.586" y2="533.586"/><line style="stroke:#a80036;stroke-width:1" id="line149" x1="68.5" x2="68.5" y1="533.586" y2="546.586"/><line style="stroke:#a80036;stroke-width:1" id="line151" x1="27.5" x2="68.5" y1="546.586" y2="546.586"/><polygon style="stroke:#a80036;stroke-width:1" id="polygon153" fill="#A80036" points="37.5 542.586 27.5 546.586 37.5 550.586 33.5 546.586"/><text id="text155" x="33.5" y="528.52" fill="#000" font-family="sans-serif" font-size="13" lengthAdjust="spacingAndGlyphs" textLength="37">check</text><polygon style="stroke:#a80036;stroke-width:1" id="polygon157" fill="#A80036" points="244.5 571.586 254.5 575.586 244.5 579.586 248.5 575.586"/><line style="stroke:#a80036;stroke-width:1" id="line159" x1="26.5" x2="250.5" y1="575.586" y2="575.586"/><text id="text161" x="33.5" y="570.653" fill="#000" font-family="sans-serif" font-size="13" lengthAdjust="spacingAndGlyphs" textLength="137">commit transaction 1</text></g></svg>